<?xml version="1.0" encoding="UTF-8"?>
<!DOCTYPE svg PUBLIC "-//W3C//DTD SVG 1.1//EN" "http://www.w3.org/Graphics/SVG/1.1/DTD/svg11.dtd">
<svg xmlns="http://www.w3.org/2000/svg" version="1.1" width="48px" height="48px" style="shape-rendering:geometricPrecision; text-rendering:geometricPrecision; image-rendering:optimizeQuality; fill-rule:evenodd; clip-rule:evenodd" xmlns:xlink="http://www.w3.org/1999/xlink">
<g><path style="opacity:0.983" fill="#fac302" d="M 20.5,-0.5 C 22.5,-0.5 24.5,-0.5 26.5,-0.5C 26.5,-0.166667 26.5,0.166667 26.5,0.5C 27.8178,3.80769 29.1511,7.14103 30.5,10.5C 30.9569,11.2975 31.6236,11.6309 32.5,11.5C 36.7905,11.1977 40.7905,11.8643 44.5,13.5C 43.71,14.6085 43.21,15.9419 43,17.5C 40.2913,20.3777 37.458,23.0443 34.5,25.5C 40.0457,40.5649 36.379,43.2315 23.5,33.5C 10.7861,43.1165 7.11948,40.4498 12.5,25.5C 9.54201,23.0443 6.70867,20.3777 4,17.5C 3.50999,16.2068 3.34332,14.8734 3.5,13.5C 6.50716,11.8255 9.8405,11.1588 13.5,11.5C 14.675,11.719 15.675,11.3857 16.5,10.5C 18.0355,7.22246 19.3689,3.88913 20.5,0.5C 20.5,0.166667 20.5,-0.166667 20.5,-0.5 Z"/></g>
<g><path style="opacity:0.027" fill="#0d0d0d" d="M 26.5,0.5 C 27.4959,0.414228 28.3292,0.747561 29,1.5C 30.4665,4.75836 31.6332,8.09169 32.5,11.5C 31.6236,11.6309 30.9569,11.2975 30.5,10.5C 29.1511,7.14103 27.8178,3.80769 26.5,0.5 Z"/></g>
<g><path style="opacity:0.03" fill="#060606" d="M 20.5,0.5 C 19.3689,3.88913 18.0355,7.22246 16.5,10.5C 15.675,11.3857 14.675,11.719 13.5,11.5C 14.6508,8.52556 15.8175,5.52556 17,2.5C 17.8159,1.17723 18.9826,0.510559 20.5,0.5 Z"/></g>
<g><path style="opacity:0.238" fill="#100f0d" d="M 3.5,13.5 C 3.34332,14.8734 3.50999,16.2068 4,17.5C 6.70867,20.3777 9.54201,23.0443 12.5,25.5C 7.11948,40.4498 10.7861,43.1165 23.5,33.5C 36.379,43.2315 40.0457,40.5649 34.5,25.5C 37.458,23.0443 40.2913,20.3777 43,17.5C 43.21,15.9419 43.71,14.6085 44.5,13.5C 45.7777,13.7822 46.7777,14.4489 47.5,15.5C 47.5,17.5 47.5,19.5 47.5,21.5C 45.9373,24.9009 43.4373,27.5676 40,29.5C 40.155,34.1969 40.155,39.1969 40,44.5C 38.8549,45.6364 37.6883,46.6364 36.5,47.5C 35.1667,47.5 33.8333,47.5 32.5,47.5C 29.6321,45.4803 26.4654,43.8136 23,42.5C 20.571,43.8937 18.4043,45.5604 16.5,47.5C 15.8333,47.5 15.1667,47.5 14.5,47.5C 14.1667,46.1667 13.8333,46.1667 13.5,47.5C 12.5,47.5 11.5,47.5 10.5,47.5C 9.73867,46.6091 8.73867,45.9424 7.5,45.5C 6.63747,40.1738 6.47081,34.8405 7,29.5C 3.50948,27.5594 1.00948,24.8928 -0.5,21.5C -0.5,20.5 -0.5,19.5 -0.5,18.5C 0.28997,17.3915 0.78997,16.0581 1,14.5C 1.67076,13.7476 2.5041,13.4142 3.5,13.5 Z"/></g>
</svg>
