<svg version="1.1" id="Layer_1" xmlns="http://www.w3.org/2000/svg" xmlns:xlink="http://www.w3.org/1999/xlink" x="0px" y="0px"
     width="100%" viewBox="0 0 114 108" xml:space="preserve">
<path fill="none" stroke="none" 
    d="
M106.000000,0.999999 
    C108.996986,1.000000 111.993973,1.000000 114.993225,1.000000 
    C114.995483,36.960838 114.995483,72.921677 114.995483,108.941254 
    C77.077400,108.941254 39.154678,108.941254 1.115980,108.941254 
    C1.115980,73.113800 1.115980,37.227108 1.115980,1.000000 
    C33.020092,1.000000 65.041389,1.000000 97.872131,1.244521 
    C98.017578,2.222817 97.449577,3.084145 96.673126,3.668490 
    C93.136368,6.330194 93.132652,8.177892 96.376854,10.820601 
    C98.473518,12.528535 100.150993,14.743095 102.188980,16.534163 
    C103.337624,17.543633 105.004547,19.020693 106.149071,18.798544 
    C111.766785,17.708168 113.715149,10.501460 109.849777,6.294971 
    C108.382927,4.698683 107.272743,2.774651 106.000000,0.999999 
z"/>
<path fill="#8B2CF5" opacity="1.000000" stroke="none" 
    d="
M46.000572,85.999596 
    C60.464325,85.999596 74.428169,85.999596 89.000702,85.999596 
    C89.000702,74.935547 89.557121,64.135864 88.819984,53.425198 
    C88.257141,45.247147 93.515137,41.750896 98.996315,36.659763 
    C98.996315,54.435291 99.079880,71.197319 98.936569,87.957397 
    C98.901489,92.060829 94.640480,95.945618 90.405319,95.961128 
    C68.753296,96.040466 47.100567,96.052025 25.448704,95.952591 
    C20.974707,95.932045 17.053982,91.848442 17.037178,87.308250 
    C16.957663,65.822777 16.960411,44.336716 17.033022,22.851194 
    C17.049057,18.106798 20.496248,14.122147 25.028755,14.075181 
    C41.789864,13.901504 58.553856,14.006086 75.601685,14.606272 
    C70.925446,18.078783 68.955978,24.626631 61.090126,24.164532 
    C49.987438,23.512276 38.817818,23.999353 27.339487,23.999353 
    C27.339487,26.628534 27.339487,29.018299 27.339487,31.820343 
    C37.044815,31.820343 46.803249,31.820343 56.685806,31.820343 
    C54.844921,37.578152 49.044979,41.997601 43.720528,41.999886 
    C38.398209,42.002167 33.075890,42.000389 27.377144,42.000389 
    C27.377144,56.547508 27.377144,70.933144 27.377144,85.999596 
    C33.315907,85.999596 39.408283,85.999596 46.000572,85.999596 
z"/>
<path fill="#8B2CF5" opacity="1.000000" stroke="none" 
    d="
M82.001541,17.985451 
    C84.071739,15.952018 85.799774,13.997229 87.497826,12.016716 
    C89.062431,10.191842 90.649368,8.925442 92.808067,11.283104 
    C96.086136,14.863292 99.400482,18.410263 103.319595,22.640814 
    C94.923256,30.885849 86.265587,39.325089 77.679893,47.836933 
    C69.906677,55.543289 69.941307,55.578217 58.509609,54.746628 
    C56.657181,46.606495 58.321266,39.876259 65.106995,34.206707 
    C71.003075,29.280468 76.161751,23.471659 82.001541,17.985451 
z"/>
</svg>
